<?xml version="1.0" encoding="UTF-8"?>
<svg version="1.1" xmlns="http://www.w3.org/2000/svg" width="512" height="512">
<path d="M0 0 C168.96 0 337.92 0 512 0 C512 168.96 512 337.92 512 512 C343.04 512 174.08 512 0 512 C0 343.04 0 174.08 0 0 Z " fill="#171717" transform="translate(0,0)"/>
<path d="M0 0 C3.78198843 1.62472056 6.71965267 4.09420594 9.8125 6.75 C10.65748047 7.47038452 10.65748047 7.47038452 11.51953125 8.20532227 C17.9208645 13.71436441 24.05113723 19.50974615 30.19189453 25.30517578 C31.87491936 26.8827559 33.57124523 28.44353891 35.27734375 29.99609375 C41.44839638 35.61192248 47.46333928 41.36087941 53.375 47.25 C54.02911865 47.89952637 54.6832373 48.54905273 55.35717773 49.21826172 C59.19896695 53.07228749 62.84975083 57.04184059 66.40576172 61.16064453 C68.51235689 63.59113274 70.69260154 65.95007203 72.875 68.3125 C90.22404909 87.3834096 105.7278037 108.29067842 117.93408203 131.01904297 C118.62798999 132.30863737 119.32913948 133.59436989 120.03857422 134.87548828 C139.07550621 169.3497409 142.52950607 206.03059621 132.22119141 243.85791016 C121.96211276 278.59015001 98.73130859 306.64978045 67.2277832 324.23950195 C35.82520282 341.22735634 -2.90350929 345.27021323 -37.3046875 335.765625 C-45.15038157 333.40488145 -52.66246151 330.65127699 -60 327 C-60.6717627 326.66629395 -61.34352539 326.33258789 -62.03564453 325.98876953 C-84.39631273 314.63105386 -102.97903645 297.42106643 -116 276 C-116.5580835 275.08831055 -116.5580835 275.08831055 -117.12744141 274.15820312 C-126.96609304 257.76490027 -131.78391479 239.96685833 -134.65649414 221.19165039 C-134.92530982 219.4765414 -135.24418103 217.76926207 -135.58203125 216.06640625 C-137.69763902 200.54535862 -136.13627199 185.01225422 -132 170 C-131.81808105 169.31534668 -131.63616211 168.63069336 -131.44873047 167.92529297 C-120.14022886 126.05655108 -91.65660688 91.44751121 -63 60 C-62.20722656 59.11441406 -61.41445312 58.22882813 -60.59765625 57.31640625 C-54.99690091 51.10925334 -49.21377908 45.10996514 -43.3125 39.1875 C-42.2615918 38.12970337 -42.2615918 38.12970337 -41.18945312 37.05053711 C-37.24336426 33.11604893 -33.19542197 29.36929029 -28.97583008 25.73071289 C-25.62179504 22.79277215 -22.41687991 19.69841554 -19.1875 16.625 C-13.00834572 10.78132278 -6.70399984 5.24105073 0 0 Z " fill="#161617" transform="translate(255,86)"/>
<path d="M0 0 C3.78198843 1.62472056 6.71965267 4.09420594 9.8125 6.75 C10.65748047 7.47038452 10.65748047 7.47038452 11.51953125 8.20532227 C17.9208645 13.71436441 24.05113723 19.50974615 30.19189453 25.30517578 C31.87491936 26.8827559 33.57124523 28.44353891 35.27734375 29.99609375 C41.44839638 35.61192248 47.46333928 41.36087941 53.375 47.25 C54.02911865 47.89952637 54.6832373 48.54905273 55.35717773 49.21826172 C59.19896695 53.07228749 62.84975083 57.04184059 66.40576172 61.16064453 C68.51235689 63.59113274 70.69260154 65.95007203 72.875 68.3125 C90.22404909 87.3834096 105.7278037 108.29067842 117.93408203 131.01904297 C118.62798999 132.30863737 119.32913948 133.59436989 120.03857422 134.87548828 C139.07550621 169.3497409 142.52950607 206.03059621 132.22119141 243.85791016 C121.96211276 278.59015001 98.73130859 306.64978045 67.2277832 324.23950195 C35.82520282 341.22735634 -2.90350929 345.27021323 -37.3046875 335.765625 C-45.15038157 333.40488145 -52.66246151 330.65127699 -60 327 C-60.6717627 326.66629395 -61.34352539 326.33258789 -62.03564453 325.98876953 C-84.39631273 314.63105386 -102.97903645 297.42106643 -116 276 C-116.5580835 275.08831055 -116.5580835 275.08831055 -117.12744141 274.15820312 C-126.96609304 257.76490027 -131.78391479 239.96685833 -134.65649414 221.19165039 C-134.92530982 219.4765414 -135.24418103 217.76926207 -135.58203125 216.06640625 C-137.69763902 200.54535862 -136.13627199 185.01225422 -132 170 C-131.81808105 169.31534668 -131.63616211 168.63069336 -131.44873047 167.92529297 C-120.14022886 126.05655108 -91.65660688 91.44751121 -63 60 C-62.20722656 59.11441406 -61.41445312 58.22882813 -60.59765625 57.31640625 C-54.99690091 51.10925334 -49.21377908 45.10996514 -43.3125 39.1875 C-42.2615918 38.12970337 -42.2615918 38.12970337 -41.18945312 37.05053711 C-37.24336426 33.11604893 -33.19542197 29.36929029 -28.97583008 25.73071289 C-25.62179504 22.79277215 -22.41687991 19.69841554 -19.1875 16.625 C-13.00834572 10.78132278 -6.70399984 5.24105073 0 0 Z M-6.3125 50.6875 C-6.95896484 51.29674316 -7.60542969 51.90598633 -8.27148438 52.53369141 C-14.26750528 58.2259923 -20.14329953 64.03989769 -26 69.875 C-27.32511597 71.19310669 -27.32511597 71.19310669 -28.67700195 72.5378418 C-33.65930417 77.53243549 -38.41437281 82.64116551 -43 88 C-44.02141129 89.15674024 -45.04481 90.311729 -46.0703125 91.46484375 C-75.41689504 124.71574395 -103.5104048 163.89499225 -101.19189453 210.08349609 C-99.32599696 238.4422905 -87.08396346 262.80650135 -66.625 282.3125 C-51.9052835 295.21316063 -34.74250497 301.63669036 -16 306 C-14.76830078 306.30744141 -14.76830078 306.30744141 -13.51171875 306.62109375 C12.70541836 310.57608955 41.09237585 302.88263633 62.26586914 287.27905273 C83.80537072 270.79804663 97.62692703 247.19160878 102.3125 220.5 C107.32647013 177.90559355 89.46623623 143.83558665 64 111 C63.37867188 110.195625 62.75734375 109.39125 62.1171875 108.5625 C48.39360748 91.10656559 33.09759 75.02214012 17.4375 59.3125 C16.95628693 58.82860809 16.47507385 58.34471619 15.97927856 57.84616089 C14.59203873 56.45305209 13.20038095 55.06434701 11.80859375 53.67578125 C11.00220459 52.87052002 10.19581543 52.06525879 9.36499023 51.2355957 C2.22294774 44.48431222 0.75959096 43.9682746 -6.3125 50.6875 Z " fill="#BBC4E4" transform="translate(255,86)"/>
<path d="M0 0 C5.13964525 2.89689096 6.68710242 5.94119799 8.234375 11.34765625 C13.46135396 29.4554048 22.08325223 42.89393166 38.6875 52.25 C49.07056312 57.00802282 60.1862037 58.44504442 71.4765625 58.43359375 C76.54840721 59.24891247 79.31670271 61.7045946 82.375 65.875 C83.75017467 70.55059389 83.55896687 73.92347121 81.3125 78.25 C78.61788724 81.45440436 76.35553387 83.65142993 72.07299805 84.28515625 C69.76925928 84.40625456 67.49410157 84.41553985 65.1875 84.375 C63.92715942 84.3586853 63.92715942 84.3586853 62.64135742 84.34204102 C38.61462979 83.74108936 18.17613277 74.32912819 1.50390625 56.953125 C-9.06951067 44.48276121 -18.91656218 25.73722234 -18 9 C-16.75588046 5.59504127 -15.61690397 3.56082179 -12.9375 1.125 C-8.56492427 -0.54960347 -4.61593719 -0.76192553 0 0 Z " fill="#BBC4E4" transform="translate(190,291)"/>
</svg>
